<?xml version="1.0" encoding="utf-8" ?>	<!-- Generator: Assembly 2.2 - http://assemblyapp.co -->	<svg version="1.1" xmlns="http://www.w3.org/2000/svg" xmlns:xlink="http://www.w3.org/1999/xlink" width="2048.00" height="2048.00" viewBox="0 0 2048.0 2048.0">		<rect x="0" y="0" width="2048.00" height="2048.00" fill="#5ece1b" />		<g id="document" transform="matrix(1,0,0,1,1024.0,1024.0)">			<path d="M-699.399,-550.44 L-550.44,-550.44 L-550.44,-699.399 L-699.399,-699.399 L-699.399,-550.44 Z M-520.648,-550.44 L-371.689,-550.44 L-371.689,-699.399 L-520.648,-699.399 L-520.648,-550.44 Z M-341.898,-550.44 L-192.939,-550.44 L-192.939,-699.399 L-341.898,-699.399 L-341.898,-550.44 Z M-163.146,-550.44 L-14.1866,-550.44 L-14.1866,-699.399 L-163.146,-699.399 L-163.146,-550.44 Z M17.0232,-550.44 L165.982,-550.44 L165.982,-699.399 L17.0232,-699.399 L17.0232,-550.44 Z M194.355,-550.44 L343.314,-550.44 L343.314,-699.399 L194.355,-699.399 L194.355,-550.44 Z M374.524,-550.44 L523.483,-550.44 L523.483,-699.399 L374.524,-699.399 L374.524,-550.44 Z M553.276,-550.44 L702.235,-550.44 L702.235,-699.399 L553.276,-699.399 L553.276,-550.44 Z M-699.399,-371.689 L-550.44,-371.689 L-550.44,-520.648 L-699.399,-520.648 L-699.399,-371.689 Z M-520.648,-371.689 L-371.689,-371.689 L-371.689,-520.648 L-520.648,-520.648 L-520.648,-371.689 Z M-341.898,-371.689 L-192.939,-371.689 L-192.939,-520.648 L-341.898,-520.648 L-341.898,-371.689 Z M-163.146,-371.689 L-14.1866,-371.689 L-14.1866,-520.648 L-163.146,-520.648 L-163.146,-371.689 Z M17.0232,-371.689 L165.982,-371.689 L165.982,-520.648 L17.0232,-520.648 L17.0232,-371.689 Z M194.355,-371.689 L343.314,-371.689 L343.314,-520.648 L194.355,-520.648 L194.355,-371.689 Z M374.524,-371.689 L523.483,-371.689 L523.483,-520.648 L374.524,-520.648 L374.524,-371.689 Z M553.276,-371.689 L702.235,-371.689 L702.235,-520.648 L553.276,-520.648 L553.276,-371.689 Z M-699.399,-192.939 L-550.44,-192.939 L-550.44,-341.898 L-699.399,-341.898 L-699.399,-192.939 Z M-520.648,-192.939 L-371.689,-192.939 L-371.689,-341.898 L-520.648,-341.898 L-520.648,-192.939 Z M-341.898,-192.939 L-192.939,-192.939 L-192.939,-341.898 L-341.898,-341.898 L-341.898,-192.939 Z M-163.146,-192.939 L-14.1866,-192.939 L-14.1866,-341.898 L-163.146,-341.898 L-163.146,-192.939 Z M17.0232,-192.939 L165.982,-192.939 L165.982,-341.898 L17.0232,-341.898 L17.0232,-192.939 Z M194.355,-192.939 L343.314,-192.939 L343.314,-341.898 L194.355,-341.898 L194.355,-192.939 Z M374.524,-192.939 L523.483,-192.939 L523.483,-341.898 L374.524,-341.898 L374.524,-192.939 Z M553.276,-192.939 L702.235,-192.939 L702.235,-341.898 L553.276,-341.898 L553.276,-192.939 Z M-699.399,-14.1866 L-550.44,-14.1866 L-550.44,-163.146 L-699.399,-163.146 L-699.399,-14.1866 Z M-520.648,-14.1866 L-371.689,-14.1866 L-371.689,-163.146 L-520.648,-163.146 L-520.648,-14.1866 Z M-341.898,-14.1866 L-192.939,-14.1866 L-192.939,-163.146 L-341.898,-163.146 L-341.898,-14.1866 Z M-163.146,-14.1866 L-14.1866,-14.1866 L-14.1866,-163.146 L-163.146,-163.146 L-163.146,-14.1866 Z M17.0232,-14.1866 L165.982,-14.1866 L165.982,-163.146 L17.0232,-163.146 L17.0232,-14.1866 Z M194.355,-14.1866 L343.314,-14.1866 L343.314,-163.146 L194.355,-163.146 L194.355,-14.1866 Z M374.524,-14.1866 L523.483,-14.1866 L523.483,-163.146 L374.524,-163.146 L374.524,-14.1866 Z M553.276,-14.1866 L702.235,-14.1866 L702.235,-163.146 L553.276,-163.146 L553.276,-14.1866 Z M-699.399,165.982 L-550.44,165.982 L-550.44,17.0232 L-699.399,17.0232 L-699.399,165.982 Z M-520.648,165.982 L-371.689,165.982 L-371.689,17.0232 L-520.648,17.0232 L-520.648,165.982 Z M-341.898,165.982 L-192.939,165.982 L-192.939,17.0232 L-341.898,17.0232 L-341.898,165.982 Z M-163.146,165.982 L-14.1866,165.982 L-14.1866,17.0232 L-163.146,17.0232 L-163.146,165.982 Z M17.0232,165.982 L165.982,165.982 L165.982,17.0232 L17.0232,17.0232 L17.0232,165.982 Z M194.355,165.982 L343.314,165.982 L343.314,17.0232 L194.355,17.0232 L194.355,165.982 Z M374.524,165.982 L523.483,165.982 L523.483,17.0232 L374.524,17.0232 L374.524,165.982 Z M553.276,165.982 L702.235,165.982 L702.235,17.0232 L553.276,17.0232 L553.276,165.982 Z M-699.399,343.314 L-550.44,343.314 L-550.44,194.355 L-699.399,194.355 L-699.399,343.314 Z M-520.648,343.314 L-371.689,343.314 L-371.689,194.355 L-520.648,194.355 L-520.648,343.314 Z M-341.898,343.314 L-192.939,343.314 L-192.939,194.355 L-341.898,194.355 L-341.898,343.314 Z M-163.146,343.314 L-14.1866,343.314 L-14.1866,194.355 L-163.146,194.355 L-163.146,343.314 Z M17.0232,343.314 L165.982,343.314 L165.982,194.355 L17.0232,194.355 L17.0232,343.314 Z M194.355,343.314 L343.314,343.314 L343.314,194.355 L194.355,194.355 L194.355,343.314 Z M374.524,343.314 L523.483,343.314 L523.483,194.355 L374.524,194.355 L374.524,343.314 Z M553.276,343.314 L702.235,343.314 L702.235,194.355 L553.276,194.355 L553.276,343.314 Z M-699.399,523.483 L-550.44,523.483 L-550.44,374.524 L-699.399,374.524 L-699.399,523.483 Z M-520.648,523.483 L-371.689,523.483 L-371.689,374.524 L-520.648,374.524 L-520.648,523.483 Z M-341.898,523.483 L-192.939,523.483 L-192.939,374.524 L-341.898,374.524 L-341.898,523.483 Z M-163.146,523.483 L-14.1866,523.483 L-14.1866,374.524 L-163.146,374.524 L-163.146,523.483 Z M17.0232,523.483 L165.982,523.483 L165.982,374.524 L17.0232,374.524 L17.0232,523.483 Z M194.355,523.483 L343.314,523.483 L343.314,374.524 L194.355,374.524 L194.355,523.483 Z M374.524,523.483 L523.483,523.483 L523.483,374.524 L374.524,374.524 L374.524,523.483 Z M553.276,523.483 L702.235,523.483 L702.235,374.524 L553.276,374.524 L553.276,523.483 Z M-699.399,702.235 L-550.44,702.235 L-550.44,553.276 L-699.399,553.276 L-699.399,702.235 Z M-520.648,702.235 L-371.689,702.235 L-371.689,553.276 L-520.648,553.276 L-520.648,702.235 Z M-341.898,702.235 L-192.939,702.235 L-192.939,553.276 L-341.898,553.276 L-341.898,702.235 Z M-163.146,702.235 L-14.1866,702.235 L-14.1866,553.276 L-163.146,553.276 L-163.146,702.235 Z M17.0232,702.235 L165.982,702.235 L165.982,553.276 L17.0232,553.276 L17.0232,702.235 Z M194.355,702.235 L343.314,702.235 L343.314,553.276 L194.355,553.276 L194.355,702.235 Z M374.524,702.235 L523.483,702.235 L523.483,553.276 L374.524,553.276 L374.524,702.235 Z M553.276,702.235 L702.235,702.235 L702.235,553.276 L553.276,553.276 L553.276,702.235 Z " fill="#0b02ff" fill-opacity="1.00" stroke-width="59.94" stroke="#ffb30d" stroke-linecap="butt" stroke-linejoin="bevel" />		</g>	</svg>